<?xml version="1.0" encoding="UTF-8" standalone="no"?>
<!-- Created with Inkscape (http://www.inkscape.org/) -->

<svg
   xmlns:dc="http://purl.org/dc/elements/1.1/"
   xmlns:cc="http://creativecommons.org/ns#"
   xmlns:rdf="http://www.w3.org/1999/02/22-rdf-syntax-ns#"
   xmlns:svg="http://www.w3.org/2000/svg"
   xmlns="http://www.w3.org/2000/svg"
   xmlns:sodipodi="http://sodipodi.sourceforge.net/DTD/sodipodi-0.dtd"
   xmlns:inkscape="http://www.inkscape.org/namespaces/inkscape"
   width="11.42639mm"
   height="21.272326mm"
   viewBox="0 0 40.487208 75.374381"
   id="svg4246"
   version="1.1"
   inkscape:version="0.91 r13725"
   sodipodi:docname="rocket_cyan.svg">
  <defs
     id="defs4248" />
  <sodipodi:namedview
     id="base"
     pagecolor="#ffffff"
     bordercolor="#666666"
     borderopacity="1.0"
     inkscape:pageopacity="0.0"
     inkscape:pageshadow="2"
     inkscape:zoom="3.959798"
     inkscape:cx="64.454165"
     inkscape:cy="12.286059"
     inkscape:document-units="px"
     inkscape:current-layer="g4822"
     showgrid="false"
     fit-margin-top="0"
     fit-margin-left="0"
     fit-margin-right="0"
     fit-margin-bottom="0"
     inkscape:window-width="1600"
     inkscape:window-height="820"
     inkscape:window-x="0"
     inkscape:window-y="1080"
     inkscape:window-maximized="1" />
  <metadata
     id="metadata4251">
    <rdf:RDF>
      <cc:Work
         rdf:about="">
        <dc:format>image/svg+xml</dc:format>
        <dc:type
           rdf:resource="http://purl.org/dc/dcmitype/StillImage" />
        <dc:title></dc:title>
      </cc:Work>
    </rdf:RDF>
  </metadata>
  <g
     inkscape:label="Layer 1"
     inkscape:groupmode="layer"
     id="layer1"
     transform="translate(-424.78105,-464.94314)">
    <g
       id="g4822">
      <g
         transform="matrix(-1,0,0,1,890.0493,0)"
         id="g4806"
         style="fill:#d400aa;fill-opacity:1">
        <path
           sodipodi:nodetypes="csscc"
           inkscape:connector-curvature="0"
           id="path4810"
           d="m 435.39873,494.63074 c 0,0 -8.04107,11.1758 -9.43003,19.32016 -1.38896,8.14435 -1.07328,7.26047 4.79823,1.70463 5.87151,-5.55584 8.20748,5.99778 8.20748,5.99778 z"
           style="fill:#ff7f2a;fill-opacity:1;fill-rule:evenodd;stroke:#000000;stroke-width:1px;stroke-linecap:butt;stroke-linejoin:miter;stroke-opacity:1" />
      </g>
      <path
         style="fill:#ff7f2a;fill-opacity:1;fill-rule:evenodd;stroke:#000000;stroke-width:1px;stroke-linecap:butt;stroke-linejoin:miter;stroke-opacity:1"
         d="m 435.39873,494.63074 c 0,0 -8.04107,11.1758 -9.43003,19.32016 -1.38896,8.14435 -1.07328,7.26047 4.79823,1.70463 5.87151,-5.55584 8.20748,5.99778 8.20748,5.99778 z"
         id="path4800"
         inkscape:connector-curvature="0"
         sodipodi:nodetypes="csscc" />
      <path
         sodipodi:nodetypes="csccscc"
         style="fill:#00aad4;fill-opacity:1;fill-rule:evenodd;stroke:#000000;stroke-width:1px;stroke-linecap:butt;stroke-linejoin:miter;stroke-opacity:1"
         d="m 440,525.57649 c 0,0 -7.05357,-22.94643 -3.83928,-40.17857 3.21428,-17.23215 7.05357,-17.58929 7.05357,-17.58929 1.30707,-3.75608 2.48057,-2.50322 3.62072,0 0,0 3.83929,0.35714 7.05357,17.58929 3.21429,17.23214 -3.83928,40.17857 -3.83928,40.17857 -3.30155,-0.86784 -6.62956,-1.2595 -10.0493,0 z"
         id="path4796"
         inkscape:connector-curvature="0" />
    </g>
    <circle
       r="3.8392856"
       cy="480.39789"
       cx="445.2049"
       id="path4814"
       style="color:#000000;display:inline;overflow:visible;visibility:visible;opacity:1;fill:#ff7f2a;fill-opacity:1;fill-rule:nonzero;stroke:#000000;stroke-width:1;stroke-linecap:round;stroke-linejoin:miter;stroke-miterlimit:4;stroke-dasharray:none;stroke-dashoffset:0;stroke-opacity:1;marker:none;enable-background:accumulate" />
    <circle
       style="color:#000000;display:inline;overflow:visible;visibility:visible;opacity:1;fill:#ff7f2a;fill-opacity:1;fill-rule:nonzero;stroke:#000000;stroke-width:1;stroke-linecap:round;stroke-linejoin:miter;stroke-miterlimit:4;stroke-dasharray:none;stroke-dashoffset:0;stroke-opacity:1;marker:none;enable-background:accumulate"
       id="circle4816"
       cx="445.2049"
       cy="500.39789"
       r="3.8392856" />
    <path
       style="color:#000000;display:inline;overflow:visible;visibility:visible;opacity:1;fill:none;fill-opacity:1;fill-rule:nonzero;stroke:#000000;stroke-width:1;stroke-linecap:round;stroke-linejoin:miter;stroke-miterlimit:4;stroke-dasharray:none;stroke-dashoffset:0;stroke-opacity:1;marker:none;enable-background:accumulate"
       d="m 450.70677,526.82129 a 5.6821079,2.0203052 0 0 1 -5.68211,2.0203 5.6821079,2.0203052 0 0 1 -5.68211,-2.0203 5.6821079,2.0203052 0 0 1 5.68211,-2.02031 5.6821079,2.0203052 0 0 1 5.68211,2.02031 z"
       id="path4818"
       inkscape:connector-curvature="0" />
    <path
       style="fill:#ff7f2a;fill-opacity:1;fill-rule:evenodd;stroke:none;stroke-width:1px;stroke-linecap:butt;stroke-linejoin:miter;stroke-opacity:1"
       d="m 440.58435,528.06147 c -1.74677,3.67023 0.82075,10.79601 1.32583,12.12183 0.50507,1.32583 1.42052,-7.60771 1.42052,-7.60771 0.44635,-0.11647 1.43059,7.05026 1.95717,7.57614 1.0338,-0.3552 0.60774,-8.50849 0.78921,-7.63927 1.2766,6.11459 2.99889,7.35517 2.99889,7.35517 0.17596,-1.23087 1.42786,-7.94692 0.1894,-11.71146 -0.62621,-1.90349 -3.65937,-2.27695 -5.65054,-2.05187 -1.19489,0.13507 -2.51368,0.87137 -3.03045,1.95717 z"
       id="path4831"
       inkscape:connector-curvature="0"
       sodipodi:nodetypes="csscsssssc" />
  </g>
</svg>
